<?xml version="1.0" encoding="UTF-8"?>
<svg id="Layer_1" data-name="Layer 1" xmlns="http://www.w3.org/2000/svg" viewBox="0 0 67.11 68.88">
  <defs>
    <style>
      .cls-1 {
        fill: #858585;
      }
    </style>
  </defs>
  <path class="cls-1" d="m34.93,40.94v-9.41h31.71c.31,1.64.47,3.58.47,5.68,0,7.06-1.93,15.79-8.15,22.01-6.05,6.3-13.78,9.66-24.02,9.66-18.98,0-34.94-15.46-34.94-34.44S15.96,0,34.94,0c10.5,0,17.98,4.12,23.6,9.49l-6.64,6.64c-4.03-3.78-9.49-6.72-16.97-6.72-13.86,0-24.7,11.17-24.7,25.03s10.84,25.03,24.7,25.03c8.99,0,14.11-3.61,17.39-6.89,2.66-2.66,4.41-6.46,5.1-11.65h-22.49Z"/>
</svg>